P3
# hw5test.ppm
3 2
255
181 39 34
181 88 34
204 167 20
24 201 39
22 148 201
79 24 199